<svg xmlns="http://www.w3.org/2000/svg" viewBox="0 0 311.02 82.09"><defs><style>.cls-1{fill:#2cbcbc;}</style></defs><g id="Layer_2" data-name="Layer 2"><g id="Layer_1-2" data-name="Layer 1"><path class="cls-1" d="M308.52,73.19a13.42,13.42,0,0,1-9.36,3.38c-3.68,0-6.49-1-8.38-3.07s-2.81-5.06-2.81-9V29.65C293.8,27.86,299.42,26,304.79,24V18.86c-5.32,2.05-10.94,3.94-16.82,5.78V7.46h-5.78V26.37c-4.8,1.38-9.76,2.71-14.92,3.94a19.38,19.38,0,0,0-2.81-3.53q-6.6-6.59-17.94-6.59a28.76,28.76,0,0,0-14.67,3.58,22.78,22.78,0,0,0-9.31,10V20.65H217V39.56c-16,2.1-32.71,3.63-49.88,4.45a2.6,2.6,0,0,1-2.35-1.89l-.05-.16a2.61,2.61,0,0,1,2.5-3.37l35.52-5.16c5-.67,7.87-2.71,8.74-6.24,1.43-5.77,2-7.31,2-12.11C213.45,5,204.35.61,198.73.61S191.37,4,183.75,4s-9.3-3.43-15-3.43S154.05,5,154.05,15.08c0,6.64,2.76,17.22,4.6,23.56.46,1.53.92,3.73,1.69,5.67-2.81.11-5.57.21-8.38.26.1-1.33.2-2.66.2-4a40.17,40.17,0,0,0-5.42-20.9A37.89,37.89,0,0,0,131.51,5.21,47.58,47.58,0,0,0,109,0H84.9V43.14C74,42.37,63.33,41.3,52.9,40V34.3H49V50H52.9V44.77c7.16.87,14.47,1.64,21.83,2.3a34.88,34.88,0,1,1-12-32.55l3.78-3.89a40.37,40.37,0,1,0,13.64,37c1.59.1,3.17.2,4.76.35V81.12H109a46.64,46.64,0,0,0,22.39-5.22,38,38,0,0,0,15.23-14.41,38.78,38.78,0,0,0,4.6-12.06A637.87,637.87,0,0,0,217,44.37V81.12h5.78V48.91c0-7.15,2-12.88,6.13-17.12s9.71-6.39,16.77-6.39c6.18,0,11,1.79,14.41,5.32s5.16,8.74,5.16,15.54V81.12H271V45.75a32.76,32.76,0,0,0-1.69-11c4.4-1.08,8.64-2.2,12.83-3.38V65.12q0,7.74,4.3,12.11c2.86,2.91,6.9,4.35,12.16,4.35a20.72,20.72,0,0,0,6.9-1.13A14.53,14.53,0,0,0,311,77.28ZM158.3,15.08c0-7.62,7.15-10.17,10.42-10.17a11.21,11.21,0,0,1,4.65,1.17A24.63,24.63,0,0,0,183.7,8.33,23.79,23.79,0,0,0,194,6.08a11.3,11.3,0,0,1,4.66-1.17c3.27,0,10.42,2.55,10.42,10.17,0,3.58.05,3.47-1.74,10.53-.46,1.94-2.19,3.06-4.7,3.52l-35.52,5.22a6.89,6.89,0,0,0-4.81,1.94C159.73,27,158.3,19.53,158.3,15.08ZM90.78,5.37h17.78a42.28,42.28,0,0,1,19.78,4.44,31.44,31.44,0,0,1,13.19,12.48,36,36,0,0,1,4.65,18.29c0,1.43-.1,2.81-.2,4.19-4.24.11-8.54.11-12.83.11-3.78,0-7.57-.05-11.3-.11V39H118v5.67c-1,0-2.1-.05-3.12-.05V39H111v5.47c-6.8-.21-13.55-.51-20.19-1V5.37Zm50.75,53.46A32,32,0,0,1,128.34,71.3a42.31,42.31,0,0,1-19.78,4.45H90.78V48.3c6.69.41,13.39.72,20.19.92v5.47h3.88V49.32c1,0,2.1,0,3.12,0v5.27h3.88V49.48c3.79.05,7.52.1,11.3.1,4,0,8,0,12-.1A31,31,0,0,1,141.53,58.83Z"/><path class="cls-1" d="M198.11,54.49h-2.19l.66-2.71H171s.26,1,.67,2.71h-2.2a1.38,1.38,0,1,0,0,2.76h2.86c.21.81.41,1.73.67,2.71h21.62c.2-1,.46-1.84.66-2.71h2.86a1.38,1.38,0,0,0,1.38-1.38A1.44,1.44,0,0,0,198.11,54.49Z"/><path class="cls-1" d="M195.51,65.27h-2.2c.2-.92.46-1.79.66-2.71H173.58c.2.92.46,1.79.66,2.71h-2.19a1.38,1.38,0,1,0,0,2.76h2.86c.2.92.46,1.84.66,2.66h16.51c.21-.87.41-1.74.67-2.66h2.86A1.37,1.37,0,0,0,197,66.65,1.5,1.5,0,0,0,195.51,65.27Z"/><path class="cls-1" d="M176.85,76.46c1,3.94,3.68,5.63,6.85,5.63a6.72,6.72,0,0,0,6.85-5.63c.15-.66.41-1.73.76-3.11H176.08C176.44,74.73,176.7,75.8,176.85,76.46Z"/></g></g></svg>